<svg version="1.1" id="Layer_1" xmlns="http://www.w3.org/2000/svg" x="0" y="0" viewBox="0 0 946 946" xml:space="preserve"><style>.st1{fill:#fff}</style><g opacity=".1"><path class="st1" d="M473 344c-70.3 0-127.4 57.2-127.4 127.4S402.8 598.8 473 598.8s127.4-57.1 127.4-127.4c0-70.2-57.2-127.4-127.4-127.4zm0 249.3c-67.2 0-121.9-54.7-121.9-121.9S405.8 349.5 473 349.5s121.9 54.7 121.9 121.9S540.2 593.3 473 593.3z"/><path class="st1" d="M473 305.8c-91.4 0-165.8 74.4-165.8 165.8S381.6 637.4 473 637.4 638.8 563 638.8 471.6 564.4 305.8 473 305.8zm0 323.7c-87 0-157.9-70.8-157.9-157.9 0-87.1 70.8-157.9 157.9-157.9 87 0 157.9 70.8 157.9 157.9-.1 87.1-70.9 157.9-157.9 157.9z"/><path class="st1" d="M473 267.6c-112.6 0-204.2 91.6-204.2 204.2S360.4 676 473 676s204.2-91.6 204.2-204.2S585.6 267.6 473 267.6zm0 398c-106.9 0-193.8-86.9-193.8-193.8S366.1 278 473 278s193.8 87 193.8 193.8c0 106.8-86.9 193.8-193.8 193.8z"/><path class="st1" d="M473 229.3c-133.8 0-242.6 108.8-242.6 242.6S339.2 714.5 473 714.5s242.6-108.8 242.6-242.6c0-133.7-108.8-242.6-242.6-242.6zm0 472.4c-126.7 0-229.8-103.1-229.8-229.8 0-126.7 103.1-229.8 229.8-229.8S702.8 345.3 702.8 472 599.7 701.7 473 701.7z"/><path class="st1" d="M473 191.1c-154.9 0-281 126.1-281 281s126.1 281 281 281 281-126 281-281c0-154.9-126.1-281-281-281zm0 546.8c-146.5 0-265.7-119.2-265.7-265.7S326.5 206.4 473 206.4s265.7 119.2 265.7 265.8c0 146.5-119.2 265.7-265.7 265.7z"/><path class="st1" d="M473 152.9c-176.1 0-319.4 143.3-319.4 319.4 0 176.1 143.3 319.4 319.4 319.4s319.4-143.3 319.4-319.4c0-176.1-143.3-319.4-319.4-319.4zm0 621.1c-166.4 0-301.7-135.3-301.7-301.7 0-166.4 135.3-301.7 301.7-301.7S774.7 306 774.7 472.3C774.7 638.7 639.3 774 473 774z"/><path class="st1" d="M473 114.7c-197.3 0-357.8 160.5-357.8 357.8S275.7 830.3 473 830.3s357.8-160.5 357.8-357.8S670.3 114.7 473 114.7zm0 695.4c-186.2 0-337.7-151.5-337.7-337.6 0-186.2 151.5-337.7 337.7-337.7s337.7 151.5 337.7 337.7S659.2 810.1 473 810.1z"/><path class="st1" d="M473 76.4c-218.5 0-396.2 177.8-396.2 396.2 0 218.5 177.7 396.2 396.2 396.2s396.2-177.7 396.2-396.2c0-218.4-177.7-396.2-396.2-396.2zm0 769.9c-206 0-373.6-167.6-373.6-373.6C99.4 266.7 267 99 473 99c206 0 373.6 167.6 373.6 373.6 0 206.1-167.6 373.7-373.6 373.7z"/><path class="st1" d="M473 38.2c-239.6 0-434.6 195-434.6 434.6 0 239.6 195 434.6 434.6 434.6s434.6-195 434.6-434.6c0-239.6-195-434.6-434.6-434.6zm0 844.2c-225.8 0-409.6-183.7-409.6-409.5C63.4 247 247.2 63.3 473 63.3S882.6 247 882.6 472.9c0 225.8-183.8 409.5-409.6 409.5z"/><path class="st1" d="M473 0C212.2 0 0 212.2 0 473s212.2 473 473 473 473-212.2 473-473S733.8 0 473 0zm0 918.5C227.3 918.5 27.5 718.7 27.5 473 27.5 227.4 227.3 27.5 473 27.5S918.5 227.3 918.5 473 718.7 918.5 473 918.5z"/></g></svg>