<svg width="123" height="31" viewBox="0 0 123 31" fill="none" xmlns="http://www.w3.org/2000/svg"><g opacity=".5" fill="#6C6C7A"><path d="M11.074 10.545a5.323 5.323 0 002.953-4.77c0-3.037-2.439-5.24-5.798-5.24H0v21.182h8.257c3.71 0 6.404-2.459 6.404-5.846a5.759 5.759 0 00-3.588-5.326zm-2.604 9.79H1.41v-9.063h7.174c2.6 0 4.637 1.984 4.637 4.518 0 2.548-2.087 4.544-4.751 4.544zm.122-10.442H1.409v-7.98h7.023c2.333 0 4.16 1.737 4.16 3.956s-1.795 4.024-4 4.024zM19.612 20.355V11.33h9.6V9.99h-9.6V1.89h10.387V.534H18.191v21.181h12.14v-1.36H19.61zM47.313 10.533c2.033.946 3.31 2.841 3.31 5.154 0 3.431-3.018 6.03-7.002 6.03h-9.947V.536h9.748c3.827 0 6.619 2.292 6.619 5.423 0 1.892-1.08 3.594-2.73 4.574l.002.001zm-2.915-3.61c0-1.1-.767-1.844-2.011-1.844h-3.004v3.69h3.005c1.243 0 2.01-.747 2.01-1.846zm.343 8.07c0-1.126-.84-1.919-2.128-1.919h-3.23v3.854h3.23c1.288 0 2.128-.793 2.128-1.936zM52.615 11.127C52.615 4.654 57.565 0 64.504 0c6.92 0 11.852 4.634 11.852 11.127 0 6.491-4.933 11.127-11.852 11.127-6.939 0-11.889-4.654-11.889-11.127zm11.889 5.698c3.285 0 5.662-2.383 5.662-5.697 0-3.315-2.377-5.699-5.662-5.699-3.287 0-5.698 2.402-5.698 5.698 0 3.298 2.412 5.698 5.698 5.698zM93.097 16.375v5.343H79.393V.535h6.023v15.84h7.681zM116.713 11.11c0 6.182-4.625 10.608-11.142 10.608h-8.735V.535h8.735c6.534 0 11.142 4.383 11.142 10.575zm-6.096 0c0-3.143-2.132-5.23-5.326-5.23h-2.483v10.495h2.483c3.194 0 5.326-2.14 5.326-5.265zM119.49 21.61c1.534 0 2.777-1.22 2.777-2.726 0-1.505-1.243-2.726-2.777-2.726s-2.777 1.22-2.777 2.726c0 1.505 1.243 2.726 2.777 2.726zM0 25.001v5h122.267v-5H0z"/></g></svg>